# xmcd
#
# Track frame offsets:
#	182
#	38505
#	69332
#	102042
#	131555
#	178502
#	202722
#	236417
#	280177
#
# Disc length: 4414 seconds
#
# Revision: 2
# Processed by: cddbd v1.5.1PL0 Copyright (c) Steve Scherf et al.
# Submitted via: audiograbber 1.83.01
#
DISCID=6a113c09
DTITLE=Rising High Productions - The Secret Life Of Trance 4 - Disk 1
DYEAR=1900
DGENRE=Trance
TTITLE0=Influx - Flying All Day
TTITLE1=Syzygy - Osiris
TTITLE2=Phax Feat. Steve Bug - Tritop
TTITLE3=Sound Enforcer - Reinforcement Ii
TTITLE4=Friends,lovers and Family - Imajica
TTITLE5=Basic Gravity - Rajah
TTITLE6=M-Age - Visitor
TTITLE7=Union Jack - Cactus
TTITLE8=Neutron 9000 - Indian Prayer
EXTD=
EXTT0=
EXTT1=
EXTT2=
EXTT3=
EXTT4=ACID FROST MIX
EXTT5=SERIOUS MIX
EXTT6=AIR LIQUIDE MIX
EXTT7=
EXTT8=
PLAYORDER=
